<?xml version="1.0" standalone="no"?>
<!DOCTYPE svg PUBLIC "-//W3C//DTD SVG 1.1//EN"
"http://www.w3.org/Graphics/SVG/1.1/DTD/svg11.dtd">

<svg width="392" height="120" view_box="0 0 392 120"
xmlns="http://www.w3.org/2000/svg"
xmlns:link="http://www.w3.org/1999/xlink">\n\n<desc>Généré par Mocodo 2.3.7 le Wed, 01 Dec 2021 13:33:46</desc>

<rect id="frame" x="0" y="0" width="392" height="120" fill="#ffffff" stroke="none" stroke-width="0"/>

<!-- Entity livre -->
<g id="entity-livre">
	<g id="frame-livre">
		<rect x="41" y="9" width="54" height="25" fill="#bababa" stroke="#bababa" stroke-width="0"/>
		<rect x="41" y="34.0" width="54" height="77" fill="#e0e0e0" stroke="#e0e0e0" stroke-width="0"/>
		<rect x="41" y="9" width="54" height="102" fill="none" stroke="#878787" stroke-width="2"/>
		<line x1="41" y1="34" x2="95" y2="34" stroke="#878787" stroke-width="1"/>
	</g>
	<text x="54" y="26.7" fill="#000000" font-family="Verdana" font-size="12">livre</text>
	<text x="46" y="51.7" fill="#000000" font-family="Verdana" font-size="12">isbn</text>
	<line x1="46" y1="54" x2="72" y2="54" stroke="#000000" stroke-width="1"/>
	<text x="46" y="68.8" fill="#000000" font-family="Verdana" font-size="12">titre</text>
	<text x="46" y="85.8" fill="#000000" font-family="Verdana" font-size="12">editeur</text>
	<text x="46" y="102.8" fill="#000000" font-family="Verdana" font-size="12">annee</text>
</g>

<!-- Entity auteur -->
<g id="entity-auteur">
	<g id="frame-auteur">
		<rect x="293" y="18" width="58" height="25" fill="#bababa" stroke="#bababa" stroke-width="0"/>
		<rect x="293" y="43.0" width="58" height="59" fill="#e0e0e0" stroke="#e0e0e0" stroke-width="0"/>
		<rect x="293" y="18" width="58" height="84" fill="none" stroke="#878787" stroke-width="2"/>
		<line x1="293" y1="43" x2="351" y2="43" stroke="#878787" stroke-width="1"/>
	</g>
	<text x="302" y="35.7" fill="#000000" font-family="Verdana" font-size="12">auteur</text>
	<text x="298" y="60.8" fill="#000000" font-family="Verdana" font-size="12">a_id</text>
	<line x1="298" y1="63" x2="325" y2="63" stroke="#000000" stroke-width="1"/>
	<text x="298" y="77.8" fill="#000000" font-family="Verdana" font-size="12">nom</text>
	<text x="298" y="94.8" fill="#000000" font-family="Verdana" font-size="12">prenom</text>
</g>

<!-- Entity auteur de -->
<g id="entity-auteur de">
	<g id="frame-auteur de">
		<rect x="159" y="26" width="70" height="25" fill="#bababa" stroke="#bababa" stroke-width="0"/>
		<rect x="159" y="51.0" width="70" height="43" fill="#e0e0e0" stroke="#e0e0e0" stroke-width="0"/>
		<rect x="159" y="26" width="70" height="68" fill="none" stroke="#878787" stroke-width="2"/>
		<line x1="159" y1="51" x2="229" y2="51" stroke="#878787" stroke-width="1"/>
	</g>
	<text x="164" y="43.7" fill="#000000" font-family="Verdana" font-size="12">auteur de</text>
	<text x="164" y="68.8" fill="#000000" font-family="Verdana" font-size="12">#a_id</text>
	<line x1="164" y1="71" x2="200" y2="71" stroke="#000000" stroke-width="1"/>
	<text x="164" y="85.8" fill="#000000" font-family="Verdana" font-size="12">#isbn</text>
	<line x1="164" y1="88" x2="199" y2="88" stroke="#000000" stroke-width="1"/>
</g>

<!-- Link from "a_id" (auteur de) to "a_id" (auteur) -->
<path d="M229 64.5 C 261.0 60.5 250.333333333 56.5 293 56.5" fill="none" stroke="#d6604d" stroke-width="2"/>
<path d="M 293 56.5 L 281.0 62.5 L 285.0 56.5 L 281.0 50.5 Z" fill="#d6604d" stroke-width="0"/>
<circle cx="229" cy="64.5" r="2" stroke="#d6604d" stroke-width="2" fill="#d6604d"/>

<!-- Link from "isbn" (auteur de) to "isbn" (livre) -->
<path d="M159 81.5 C 127.0 64.5 137.666666667 47.5 95 47.5" fill="none" stroke="#d6604d" stroke-width="2"/>
<path d="M 95 47.5 L 107.0 41.5 L 103.0 47.5 L 107.0 53.5 Z" fill="#d6604d" stroke-width="0"/>
<circle cx="159" cy="81.5" r="2" stroke="#d6604d" stroke-width="2" fill="#d6604d"/>
</svg>